<svg xmlns="http://www.w3.org/2000/svg" viewBox="0 0 512 512" width="512" height="512" role="img" aria-label="ENGAPE POST"><title>ENGAPE POST</title>
  <defs><clipPath id="iconDisc"><circle cx="256" cy="256" r="238"/></clipPath></defs>
  <circle cx="256" cy="256" r="256" fill="#CB2952"/>
  <circle cx="256" cy="256" r="238" fill="#243656"/>
  <g clip-path="url(#iconDisc)">
    <path d="M -8 400 Q 256 372 520 400 L 520 520 L -8 520 Z" fill="#3E7F3A"/>
    <path d="M 40 246 C 36 196, 74 152, 132 138 C 158 96, 226 76, 276 96
             C 336 78, 410 108, 424 164 C 466 184, 484 216, 472 246
             C 414 208, 340 192, 256 192 C 172 192, 98 208, 40 246 Z" fill="#5FB457"/>
    <path d="M 132 138 C 158 96, 226 76, 276 96 C 292 120, 262 156, 208 160
             C 158 164, 126 154, 132 138 Z" fill="#78C96E"/>
    <path d="M 230 404 C 232 340, 238 280, 240 196 L 272 196
             C 274 280, 280 340, 282 404 Z" fill="#C08A34"/>
    <path d="M 256 370 C 230 346, 190 336, 152 342 L 152 400 C 190 394, 230 404, 256 422 Z"
          fill="#FFFFFF" stroke="#243656" stroke-width="16" stroke-linejoin="round"/>
    <path d="M 256 370 C 282 346, 322 336, 360 342 L 360 400 C 322 394, 282 404, 256 422 Z"
          fill="#FFFFFF" stroke="#243656" stroke-width="16" stroke-linejoin="round"/>
  </g></svg>
