<svg xmlns="http://www.w3.org/2000/svg" viewBox="0 0 512 512" width="512" height="512" role="img" aria-label="ENGAPE POST emblem"><title>ENGAPE POST emblem</title>
  <defs><clipPath id="markDisc"><circle cx="256" cy="256" r="242"/></clipPath></defs>
  <circle cx="256" cy="256" r="256" fill="#CB2952"/>
  <circle cx="256" cy="256" r="242" fill="#243656"/>
  <g clip-path="url(#markDisc)">
    <path d="M -8 404 Q 256 378 520 404 L 520 520 L -8 520 Z" fill="#2C5F2A"/>

    <path d="M 64 244 C 62 206, 88 176, 124 164 C 128 138, 158 124, 188 130
             C 206 108, 242 100, 268 112 C 298 98, 336 108, 348 132
             C 386 130, 416 154, 420 182 C 452 194, 466 220, 458 244
             C 416 218, 344 206, 256 206 C 168 206, 106 218, 64 244 Z"
          fill="#2C5F2A" transform="translate(0,12)"/>
    <path d="M 60 236 C 58 198, 84 168, 120 156 C 124 130, 154 116, 184 122
             C 202 100, 238 92, 264 104 C 294 90, 332 100, 344 124
             C 382 122, 412 146, 416 174 C 448 186, 462 212, 454 236
             C 412 210, 340 198, 252 198 C 164 198, 102 210, 60 236 Z"
          fill="#3E7F3A"/>
    <path d="M 184 122 C 202 100, 238 92, 264 104 C 276 116, 262 140, 232 144
             C 202 148, 180 138, 184 122 Z" fill="#56A64E"/>
    <path d="M 120 156 C 124 130, 154 116, 184 122 C 186 140, 170 158, 144 164
             C 130 166, 120 162, 120 156 Z" fill="#4A9444"/>
    <path d="M 344 124 C 382 122, 412 146, 416 174 C 398 180, 366 168, 350 148
             C 342 138, 340 128, 344 124 Z" fill="#4A9444"/>

    <path d="M 238 392 C 240 344, 244 292, 246 210 L 268 210
             C 270 292, 274 344, 276 392 C 268 396, 246 396, 238 392 Z" fill="#96601F"/>
    <path d="M 252 250 C 232 240, 210 226, 196 210 C 214 218, 238 230, 256 236 Z" fill="#96601F"/>
    <path d="M 262 250 C 282 240, 304 226, 318 210 C 300 218, 276 230, 258 236 Z" fill="#96601F"/>
    <path d="M 226 392 C 232 372, 236 356, 238 340 L 238 392 Z" fill="#7C4E18"/>

    <rect x="96" y="326" width="34" height="26" rx="6" fill="#D98A1F"/>
    <rect x="96" y="356" width="34" height="26" rx="6" fill="#C07714"/>
    <circle cx="136" cy="300" r="16" fill="#CB2952"/>
    <path d="M 124 318 C 110 346, 100 374, 98 398 L 172 398 C 168 370, 158 342, 150 318 Z" fill="#CB2952"/>
    <path d="M 128 324 C 117 334, 111 343, 109 353" stroke="#B02244"
          stroke-width="12" stroke-linecap="round" fill="none"/>

    <path d="M 396 322 L 420 296" stroke="#1BA3E3" stroke-width="14" stroke-linecap="round" fill="none"/>
    <rect x="410" y="276" width="12" height="30" rx="5" fill="#D98A1F" transform="rotate(24 416 291)"/>
    <circle cx="380" cy="302" r="16" fill="#1BA3E3"/>
    <path d="M 368 320 C 356 348, 350 374, 348 398 L 418 398 C 414 372, 404 344, 394 320 Z" fill="#1BA3E3"/>
    <path d="M 344 288 L 380 274 L 416 288 L 380 302 Z" fill="#5FC4F0"/>
    <path d="M 414 289 L 418 312" stroke="#D98A1F" stroke-width="6" stroke-linecap="round" fill="none"/>
    <circle cx="419" cy="316" r="6" fill="#D98A1F"/>

    <path d="M 256 368 C 236 350, 204 342, 174 346 L 174 392 C 204 388, 236 396, 256 410 Z" fill="#FFFFFF"/>
    <path d="M 256 368 C 276 350, 308 342, 338 346 L 338 392 C 308 388, 276 396, 256 410 Z" fill="#F2F4F8"/>
    <path d="M 256 368 C 236 350, 204 342, 174 346 L 174 392 C 204 388, 236 396, 256 410
             C 276 396, 308 388, 338 392 L 338 346 C 308 342, 276 350, 256 368 Z"
          fill="none" stroke="#243656" stroke-width="9" stroke-linejoin="round"/>
    <path d="M 256 368 L 256 410" stroke="#243656" stroke-width="9" stroke-linecap="round"/>
    <path d="M 196 362 L 232 370 M 196 378 L 232 386" stroke="#8CA0C0" stroke-width="6" stroke-linecap="round"/>
    <path d="M 280 370 L 316 362 M 280 386 L 316 378" stroke="#8CA0C0" stroke-width="6" stroke-linecap="round"/>
  </g></svg>
